# xmcd
#
# Track frame offsets:
#	150
#	25150
#	42000
#	67718
#	80737
#	113386
#	151632
#	172827
#	179566
#	202231
#	221223
#	250517
#	261760
#	285453
#	293989
#	311297
#	333877
#
# Disc length: 4603 seconds
#
# Revision: 1
# Processed by: cddbd v1.4PL0 Copyright (c) Steve Scherf et al.
# Submitted via: EasyCDDAExtractor 6.0.0.1
#
DISCID=e111f911
DTITLE=Various Artist - The Beats In Prague
DYEAR=2001
DGENRE=Beat
TTITLE0=Allen Ginsberg - Gospel Noble Truth
TTITLE1=Allen Ginsberg - Everybody Sing
TTITLE2=Allen Ginsberg - Sickness Blues
TTITLE3=Allen Ginsberg - New Stanzas for Amazing Grace
TTITLE4=Allen Ginsberg - Put Down Your Cigarette Rag
TTITLE5=Allen Ginsberg - Ballad of The Skeletons
TTITLE6=Allen Ginsberg - Father Death Blues
TTITLE7=Allen Ginsberg - Fifth Internationale
TTITLE8=Lawrence Ferlinghetti - the Greedy Blues
TTITLE9=Gary Snyder - Mitton by Firelight
TTITLE10=Gary Snyder - This Poem is for Bear
TTITLE11=Gary Snyder - Burning the Small Dead
TTITLE12=Gary Snyder - Magpie`s Song
TTITLE13=Gary Snyder - For The Children
TTITLE14=Gary Snyder - Off the Trail
TTITLE15=Gary Snyder - Right in the Trail
TTITLE16=Gary Snyder - Ripples  on the Surface
EXTD=
EXTT0=
EXTT1=
EXTT2=
EXTT3=
EXTT4=
EXTT5=
EXTT6=
EXTT7=
EXTT8=
EXTT9=
EXTT10=
EXTT11=
EXTT12=
EXTT13=
EXTT14=
EXTT15=
EXTT16=
PLAYORDER=
